<?xml version="1.0" encoding="us-ascii" standalone="no"?><svg xmlns="http://www.w3.org/2000/svg" xmlns:xlink="http://www.w3.org/1999/xlink" contentStyleType="text/css" height="314px" preserveAspectRatio="none" style="width:587px;height:314px;background:#FFFFFF;" version="1.1" viewBox="0 0 587 314" width="587px" zoomAndPan="magnify"><defs/><g><text fill="#000000" font-family="sans-serif" font-size="14" font-weight="bold" lengthAdjust="spacing" textLength="125.0625" x="223.9688" y="24.5332">&#21839;&#38988;10 &#12398; &#12463;&#12521;&#12473;&#22259;</text><!--class Program--><g id="elem_Program"><rect codeLine="4" fill="#F1F1F1" height="65.6094" id="Program" rx="2.5" ry="2.5" style="stroke:#181818;stroke-width:0.5;" width="249" x="7" y="241.6094"/><ellipse cx="100.25" cy="257.6094" fill="#ADD1B2" rx="11" ry="11" style="stroke:#181818;stroke-width:1.0;"/><path d="M103.7656,258.9688 Q103.5469,262.3438 102.4063,263.4688 Q101.4063,264.4688 100.0313,264.4688 Q98.6563,264.4688 97.6563,263.4688 Q95.9219,261.7344 95.9219,258.0938 Q95.9219,253.875 97.7813,252 Q98.7969,251 100.0938,251 Q101.4688,251 102.2813,251.7969 Q103.75,253.2813 103.6875,256.0469 L101.6875,256.0469 Q101.625,253.7656 100.9688,253.1094 Q100.6563,252.7813 100.0938,252.7813 Q99.6094,252.7813 99.2188,253.1719 Q97.9688,254.4219 97.9688,257.9688 Q97.9688,261.0469 99.0313,262.0938 Q99.4844,262.5469 100.0313,262.5469 Q100.5156,262.5469 100.9688,262.0938 Q101.5625,261.5156 101.625,258.9688 L103.7656,258.9688 Z " fill="#000000"/><text fill="#000000" font-family="sans-serif" font-size="14" lengthAdjust="spacing" textLength="54" x="120.75" y="263.3379">Program</text><line style="stroke:#181818;stroke-width:0.5;" x1="8" x2="255" y1="273.6094" y2="273.6094"/><line style="stroke:#181818;stroke-width:0.5;" x1="8" x2="255" y1="281.6094" y2="281.6094"/><ellipse cx="18" cy="295.9141" fill="#84BE84" rx="3" ry="3" style="stroke:#038048;stroke-width:1.0;"/><text fill="#000000" font-family="sans-serif" font-size="14" lengthAdjust="spacing" text-decoration="underline" textLength="223" x="27" y="300.1426">public static void Main(string[] args)</text></g><!--class VendingMachine--><g id="elem_VendingMachine"><rect codeLine="8" fill="#F1F1F1" height="136.0469" id="VendingMachine" rx="2.5" ry="2.5" style="stroke:#181818;stroke-width:0.5;" width="288" x="291.5" y="45.6094"/><ellipse cx="378.25" cy="61.6094" fill="#A9DCDF" rx="11" ry="11" style="stroke:#181818;stroke-width:1.0;"/><path d="M376.0781,67.9688 L373.9375,67.9688 L377.4063,54.5 L379.1406,54.5 L382.5938,67.9688 L380.4531,67.9688 L379.5313,64.1875 L377.0156,64.1875 L376.0781,67.9688 Z M378.2031,58.4375 L378.3281,58.4375 L377.4844,62.3906 L379.0469,62.3906 L378.2031,58.4375 Z " fill="#000000"/><text fill="#000000" font-family="sans-serif" font-size="14" font-style="italic" lengthAdjust="spacing" textLength="106" x="398.75" y="67.3379">VendingMachine</text><line style="stroke:#181818;stroke-width:0.5;" x1="292.5" x2="578.5" y1="77.6094" y2="77.6094"/><ellipse cx="302.5" cy="91.9141" fill="none" rx="3" ry="3" style="stroke:#038048;stroke-width:1.0;"/><text fill="#000000" font-family="sans-serif" font-size="14" lengthAdjust="spacing" textLength="108" x="311.5" y="96.1426">private int money</text><line style="stroke:#181818;stroke-width:0.5;" x1="292.5" x2="578.5" y1="103.2188" y2="103.2188"/><ellipse cx="302.5" cy="117.5234" fill="#84BE84" rx="3" ry="3" style="stroke:#038048;stroke-width:1.0;"/><text fill="#000000" font-family="sans-serif" font-size="14" lengthAdjust="spacing" textLength="209" x="311.5" y="121.752">public void AddMoney(int money)</text><ellipse cx="302.5" cy="135.1328" fill="#84BE84" rx="3" ry="3" style="stroke:#038048;stroke-width:1.0;"/><text fill="#000000" font-family="sans-serif" font-size="14" lengthAdjust="spacing" textLength="163" x="311.5" y="139.3613">public void ShowDeposit()</text><ellipse cx="302.5" cy="152.7422" fill="#84BE84" rx="3" ry="3" style="stroke:#038048;stroke-width:1.0;"/><text fill="#000000" font-family="sans-serif" font-size="14" lengthAdjust="spacing" textLength="181" x="311.5" y="156.9707">public string Buy(int number)</text><polygon fill="#FFFF44" points="302.5,165.3516,306.5,169.3516,302.5,173.3516,298.5,169.3516" style="stroke:#B38D22;stroke-width:1.0;"/><text fill="#000000" font-family="sans-serif" font-size="14" lengthAdjust="spacing" textLength="262" x="311.5" y="174.5801">protected abstract List&lt;string&gt; GetItems()</text></g><!--class CakeVendingMachine--><g id="elem_CakeVendingMachine"><rect codeLine="16" fill="#F1F1F1" height="65.6094" id="CakeVendingMachine" rx="2.5" ry="2.5" style="stroke:#181818;stroke-width:0.5;" width="289" x="291" y="241.6094"/><ellipse cx="362.25" cy="257.6094" fill="#ADD1B2" rx="11" ry="11" style="stroke:#181818;stroke-width:1.0;"/><path d="M365.7656,258.9688 Q365.5469,262.3438 364.4063,263.4688 Q363.4063,264.4688 362.0313,264.4688 Q360.6563,264.4688 359.6563,263.4688 Q357.9219,261.7344 357.9219,258.0938 Q357.9219,253.875 359.7813,252 Q360.7969,251 362.0938,251 Q363.4688,251 364.2813,251.7969 Q365.75,253.2813 365.6875,256.0469 L363.6875,256.0469 Q363.625,253.7656 362.9688,253.1094 Q362.6563,252.7813 362.0938,252.7813 Q361.6094,252.7813 361.2188,253.1719 Q359.9688,254.4219 359.9688,257.9688 Q359.9688,261.0469 361.0313,262.0938 Q361.4844,262.5469 362.0313,262.5469 Q362.5156,262.5469 362.9688,262.0938 Q363.5625,261.5156 363.625,258.9688 L365.7656,258.9688 Z " fill="#000000"/><text fill="#000000" font-family="sans-serif" font-size="14" lengthAdjust="spacing" textLength="138" x="382.75" y="263.3379">CakeVendingMachine</text><line style="stroke:#181818;stroke-width:0.5;" x1="292" x2="579" y1="273.6094" y2="273.6094"/><line style="stroke:#181818;stroke-width:0.5;" x1="292" x2="579" y1="281.6094" y2="281.6094"/><polygon fill="#FFFF44" points="302,290.9141,306,294.9141,302,298.9141,298,294.9141" style="stroke:#B38D22;stroke-width:1.0;"/><text fill="#000000" font-family="sans-serif" font-size="14" lengthAdjust="spacing" textLength="263" x="311" y="300.1426">protected override List&lt;string&gt; GetItems()</text></g><!--link Program to CakeVendingMachine--><g id="link_Program_CakeVendingMachine"><path codeLine="20" d="M256.19,274.6094 C267.74,274.6094 273.3,274.6094 284.86,274.6094 " fill="none" id="Program-to-CakeVendingMachine" style="stroke:#181818;stroke-width:1.0;stroke-dasharray:7.0,7.0;"/><polygon fill="#181818" points="290.86,274.6094,281.86,270.6094,285.86,274.6094,281.86,278.6094,290.86,274.6094" style="stroke:#181818;stroke-width:1.0;"/></g><!--reverse link VendingMachine to CakeVendingMachine--><g id="link_VendingMachine_CakeVendingMachine"><path codeLine="21" d="M435.5,200.0394 C435.5,220.6894 435.5,224.4594 435.5,241.5794 " fill="none" id="VendingMachine-backto-CakeVendingMachine" style="stroke:#181818;stroke-width:1.0;"/><polygon fill="none" points="435.5,182.0394,429.5,200.0394,441.5,200.0394,435.5,182.0394" style="stroke:#181818;stroke-width:1.0;"/></g><!--SRC=[VP0_ImD14CNx_HG3DXSaGViGy0y4mGD1i16BlTtXRl1kD-pENP2OmjWALbPMbZPQMFbvZXJv5bvkCKGzRD-y-RrvmyGvmlBfSVNoiBy7zTqRr8lt-lwrNdmkdp-4KBdq7iwSJPqiO2O0Pfubavh3BapA92S5GO3AaePOaeayEpBfvHL8b_gUc0iXaqQJYY7mBj3enX5BbP715jlG75MI4SWm5DRWJL13HWi_q3fU3wADfVV7SvxPwJ5Eh2UEVap3KN1OXdLJ5WcwjMEdIRQCYb73vivJyZmCAoCO8vym5ZvgkuGAH_8QEsfimso5pf76_s3VdnquIZCUZ3guubVCyBQlxTJqkwnV]--></g></svg>