<?xml version="1.0" encoding="us-ascii" standalone="no"?><svg xmlns="http://www.w3.org/2000/svg" xmlns:xlink="http://www.w3.org/1999/xlink" contentStyleType="text/css" height="366px" preserveAspectRatio="none" style="width:587px;height:366px;background:#FFFFFF;" version="1.1" viewBox="0 0 587 366" width="587px" zoomAndPan="magnify"><defs/><g><text fill="#000000" font-family="sans-serif" font-size="14" font-weight="bold" lengthAdjust="spacing" textLength="125.0625" x="223.9688" y="24.5332">&#21839;&#38988;11 &#12398; &#12463;&#12521;&#12473;&#22259;</text><!--class Program--><g id="elem_Program"><rect codeLine="4" fill="#F1F1F1" height="65.6094" id="Program" rx="2.5" ry="2.5" style="stroke:#181818;stroke-width:0.5;" width="249" x="7" y="285.1094"/><ellipse cx="100.25" cy="301.1094" fill="#ADD1B2" rx="11" ry="11" style="stroke:#181818;stroke-width:1.0;"/><path d="M103.7656,302.4688 Q103.5469,305.8438 102.4063,306.9688 Q101.4063,307.9688 100.0313,307.9688 Q98.6563,307.9688 97.6563,306.9688 Q95.9219,305.2344 95.9219,301.5938 Q95.9219,297.375 97.7813,295.5 Q98.7969,294.5 100.0938,294.5 Q101.4688,294.5 102.2813,295.2969 Q103.75,296.7813 103.6875,299.5469 L101.6875,299.5469 Q101.625,297.2656 100.9688,296.6094 Q100.6563,296.2813 100.0938,296.2813 Q99.6094,296.2813 99.2188,296.6719 Q97.9688,297.9219 97.9688,301.4688 Q97.9688,304.5469 99.0313,305.5938 Q99.4844,306.0469 100.0313,306.0469 Q100.5156,306.0469 100.9688,305.5938 Q101.5625,305.0156 101.625,302.4688 L103.7656,302.4688 Z " fill="#000000"/><text fill="#000000" font-family="sans-serif" font-size="14" lengthAdjust="spacing" textLength="54" x="120.75" y="306.8379">Program</text><line style="stroke:#181818;stroke-width:0.5;" x1="8" x2="255" y1="317.1094" y2="317.1094"/><line style="stroke:#181818;stroke-width:0.5;" x1="8" x2="255" y1="325.1094" y2="325.1094"/><ellipse cx="18" cy="339.4141" fill="#84BE84" rx="3" ry="3" style="stroke:#038048;stroke-width:1.0;"/><text fill="#000000" font-family="sans-serif" font-size="14" lengthAdjust="spacing" text-decoration="underline" textLength="223" x="27" y="343.6426">public static void Main(string[] args)</text></g><!--class VendingMachine--><g id="elem_VendingMachine"><rect codeLine="8" fill="#F1F1F1" height="171.2656" id="VendingMachine" rx="2.5" ry="2.5" style="stroke:#181818;stroke-width:0.5;" width="288" x="291.5" y="45.6094"/><ellipse cx="378.25" cy="61.6094" fill="#A9DCDF" rx="11" ry="11" style="stroke:#181818;stroke-width:1.0;"/><path d="M376.0781,67.9688 L373.9375,67.9688 L377.4063,54.5 L379.1406,54.5 L382.5938,67.9688 L380.4531,67.9688 L379.5313,64.1875 L377.0156,64.1875 L376.0781,67.9688 Z M378.2031,58.4375 L378.3281,58.4375 L377.4844,62.3906 L379.0469,62.3906 L378.2031,58.4375 Z " fill="#000000"/><text fill="#000000" font-family="sans-serif" font-size="14" font-style="italic" lengthAdjust="spacing" textLength="106" x="398.75" y="67.3379">VendingMachine</text><line style="stroke:#181818;stroke-width:0.5;" x1="292.5" x2="578.5" y1="77.6094" y2="77.6094"/><ellipse cx="302.5" cy="91.9141" fill="none" rx="3" ry="3" style="stroke:#038048;stroke-width:1.0;"/><text fill="#000000" font-family="sans-serif" font-size="14" lengthAdjust="spacing" textLength="108" x="311.5" y="96.1426">private int money</text><polygon fill="none" points="302.5,104.5234,306.5,108.5234,302.5,112.5234,298.5,108.5234" style="stroke:#B38D22;stroke-width:1.0;"/><text fill="#000000" font-family="sans-serif" font-size="14" lengthAdjust="spacing" textLength="138" x="311.5" y="113.752">protected string name</text><line style="stroke:#181818;stroke-width:0.5;" x1="292.5" x2="578.5" y1="120.8281" y2="120.8281"/><ellipse cx="302.5" cy="135.1328" fill="#84BE84" rx="3" ry="3" style="stroke:#038048;stroke-width:1.0;"/><text fill="#000000" font-family="sans-serif" font-size="14" lengthAdjust="spacing" textLength="209" x="311.5" y="139.3613">public void AddMoney(int money)</text><ellipse cx="302.5" cy="152.7422" fill="#84BE84" rx="3" ry="3" style="stroke:#038048;stroke-width:1.0;"/><text fill="#000000" font-family="sans-serif" font-size="14" lengthAdjust="spacing" textLength="163" x="311.5" y="156.9707">public void ShowDeposit()</text><ellipse cx="302.5" cy="170.3516" fill="#84BE84" rx="3" ry="3" style="stroke:#038048;stroke-width:1.0;"/><text fill="#000000" font-family="sans-serif" font-size="14" lengthAdjust="spacing" textLength="181" x="311.5" y="174.5801">public string Buy(int number)</text><ellipse cx="302.5" cy="187.9609" fill="#84BE84" rx="3" ry="3" style="stroke:#038048;stroke-width:1.0;"/><text fill="#000000" font-family="sans-serif" font-size="14" lengthAdjust="spacing" textLength="151" x="311.5" y="192.1895">public void ShowName()</text><polygon fill="#FFFF44" points="302.5,200.5703,306.5,204.5703,302.5,208.5703,298.5,204.5703" style="stroke:#B38D22;stroke-width:1.0;"/><text fill="#000000" font-family="sans-serif" font-size="14" lengthAdjust="spacing" textLength="262" x="311.5" y="209.7988">protected abstract List&lt;string&gt; GetItems()</text></g><!--class CakeVendingMachine--><g id="elem_CakeVendingMachine"><rect codeLine="18" fill="#F1F1F1" height="83.2188" id="CakeVendingMachine" rx="2.5" ry="2.5" style="stroke:#181818;stroke-width:0.5;" width="289" x="291" y="276.6094"/><ellipse cx="362.25" cy="292.6094" fill="#ADD1B2" rx="11" ry="11" style="stroke:#181818;stroke-width:1.0;"/><path d="M365.7656,293.9688 Q365.5469,297.3438 364.4063,298.4688 Q363.4063,299.4688 362.0313,299.4688 Q360.6563,299.4688 359.6563,298.4688 Q357.9219,296.7344 357.9219,293.0938 Q357.9219,288.875 359.7813,287 Q360.7969,286 362.0938,286 Q363.4688,286 364.2813,286.7969 Q365.75,288.2813 365.6875,291.0469 L363.6875,291.0469 Q363.625,288.7656 362.9688,288.1094 Q362.6563,287.7813 362.0938,287.7813 Q361.6094,287.7813 361.2188,288.1719 Q359.9688,289.4219 359.9688,292.9688 Q359.9688,296.0469 361.0313,297.0938 Q361.4844,297.5469 362.0313,297.5469 Q362.5156,297.5469 362.9688,297.0938 Q363.5625,296.5156 363.625,293.9688 L365.7656,293.9688 Z " fill="#000000"/><text fill="#000000" font-family="sans-serif" font-size="14" lengthAdjust="spacing" textLength="138" x="382.75" y="298.3379">CakeVendingMachine</text><line style="stroke:#181818;stroke-width:0.5;" x1="292" x2="579" y1="308.6094" y2="308.6094"/><line style="stroke:#181818;stroke-width:0.5;" x1="292" x2="579" y1="316.6094" y2="316.6094"/><polygon fill="#FFFF44" points="302,325.9141,306,329.9141,302,333.9141,298,329.9141" style="stroke:#B38D22;stroke-width:1.0;"/><text fill="#000000" font-family="sans-serif" font-size="14" lengthAdjust="spacing" textLength="189" x="311" y="335.1426">public CakeVendingMachine()</text><polygon fill="#FFFF44" points="302,343.5234,306,347.5234,302,351.5234,298,347.5234" style="stroke:#B38D22;stroke-width:1.0;"/><text fill="#000000" font-family="sans-serif" font-size="14" lengthAdjust="spacing" textLength="263" x="311" y="352.752">protected override List&lt;string&gt; GetItems()</text></g><!--link Program to CakeVendingMachine--><g id="link_Program_CakeVendingMachine"><path codeLine="23" d="M256.19,318.1094 C267.74,318.1094 273.3,318.1094 284.86,318.1094 " fill="none" id="Program-to-CakeVendingMachine" style="stroke:#181818;stroke-width:1.0;stroke-dasharray:7.0,7.0;"/><polygon fill="#181818" points="290.86,318.1094,281.86,314.1094,285.86,318.1094,281.86,322.1094,290.86,318.1094" style="stroke:#181818;stroke-width:1.0;"/></g><!--reverse link VendingMachine to CakeVendingMachine--><g id="link_VendingMachine_CakeVendingMachine"><path codeLine="24" d="M435.5,234.7594 C435.5,255.4994 435.5,258.7694 435.5,276.3594 " fill="none" id="VendingMachine-backto-CakeVendingMachine" style="stroke:#181818;stroke-width:1.0;"/><polygon fill="none" points="435.5,216.7594,429.5,234.7594,441.5,234.7594,435.5,216.7594" style="stroke:#181818;stroke-width:1.0;"/></g><!--SRC=[VP4_ImD14CNx_HG3QIv80kb3m3yWWYU2O2CMUxV3tU3TRjYTko0nXR4LhAoiB6sqiFBp72doBJnlJL3li7tptk_Dx39nXh1wV5W_tuz6KDs-GhLyg-vUgkN7wkbTY3YJpi6fDOcLESm5mDonP8eNi0FJ8iee1Yz0QKX1A4a7ZYtfvE8If4rSNoo4a56joPZ1yyvHgzeHoZWbZGssfbag9IEGPiYDnkjQxTMgOOmP5NWgQ9cZz_lsfdPNgV0h4cp3_PRdB3Mp0vmQHnpycdw3zmeVrqKUeUtEdzJbJVZdOjlZZidnsDCcS8Xyn9Yxe7a0V_U-lCAEstkRdlQyLMPAj9OK_bUs-QwXfIJbuQI3A_wiCRuPA3FJWoxh9m00]--></g></svg>